# Blender v2.59 (sub 0) OBJ File: 'bumperRink.blend'
# www.blender.org
v -4.950000 0.000000 -4.999997
v -4.950000 0.000000 4.999997
v -5.050000 0.000000 4.999997
v -5.050000 0.000000 -5.000000
v -4.950000 0.500000 -4.999995
v -4.950000 0.500000 5.000000
v -5.050000 0.500000 4.999996
v -5.050000 0.500000 -4.999998
vn 0.000000 -1.000000 0.000000
vn 0.000000 1.000000 0.000000
vn 1.000000 0.000000 0.000000
vn -0.000026 -0.000002 1.000000
vn -1.000000 0.000000 0.000000
vn 0.000026 0.000004 -1.000000
usemtl 
s off
f 1//1 2//1 3//1
f 1//1 3//1 4//1
f 5//2 8//2 7//2
f 5//2 7//2 6//2
f 1//3 5//3 6//3
f 1//3 6//3 2//3
f 2//4 6//4 7//4
f 2//4 7//4 3//4
f 3//5 7//5 8//5
f 3//5 8//5 4//5
f 5//6 1//6 4//6
f 5//6 4//6 8//6
v 5.050000 0.000000 -4.999997
v 5.050000 0.000000 4.999997
v 4.950000 0.000000 4.999997
v 4.950000 0.000000 -5.000000
v 5.050000 0.500000 -4.999995
v 5.050000 0.500000 5.000000
v 4.950000 0.500000 4.999996
v 4.950000 0.500000 -4.999998
usemtl 
s off
f 9//1 10//1 11//1
f 9//1 11//1 12//1
f 13//2 16//2 15//2
f 13//2 15//2 14//2
f 9//3 13//3 14//3
f 9//3 14//3 10//3
f 10//4 14//4 15//4
f 10//4 15//4 11//4
f 11//5 15//5 16//5
f 11//5 16//5 12//5
f 13//6 9//6 12//6
f 13//6 12//6 16//6
v 4.999997 0.000000 4.950000
v 4.999997 0.000000 5.050000
v -4.999998 0.000000 5.050000
v -4.999996 0.000000 4.950000
v 5.000000 0.500000 4.950000
v 4.999994 0.500000 5.050000
v -5.000000 0.500000 5.050000
v -4.999997 0.500000 4.950000
vn 1.000000 0.000000 0.000029
vn -0.000000 0.000000 1.000000
vn -1.000000 -0.000003 -0.000024
vn 0.000000 0.000000 -1.000000
usemtl 
s off
f 17//1 18//1 19//1
f 17//1 19//1 20//1
f 21//2 24//2 23//2
f 21//2 23//2 22//2
f 17//7 21//7 22//7
f 17//7 22//7 18//7
f 18//8 22//8 23//8
f 18//8 23//8 19//8
f 19//9 23//9 24//9
f 19//9 24//9 20//9
f 21//10 17//10 20//10
f 21//10 20//10 24//10
v 4.999997 0.000000 -5.050000
v 4.999997 0.000000 -4.950000
v -4.999998 0.000000 -4.950000
v -4.999996 0.000000 -5.050000
v 5.000000 0.500000 -5.050000
v 4.999994 0.500000 -4.950000
v -5.000000 0.500000 -4.950000
v -4.999997 0.500000 -5.050000
usemtl 
s off
f 25//1 26//1 27//1
f 25//1 27//1 28//1
f 29//2 32//2 31//2
f 29//2 31//2 30//2
f 25//7 29//7 30//7
f 25//7 30//7 26//7
f 26//8 30//8 31//8
f 26//8 31//8 27//8
f 27//9 31//9 32//9
f 27//9 32//9 28//9
f 29//10 25//10 28//10
f 29//10 28//10 32//10
v 4.999997 -0.005000 -4.999997
v 4.999997 -0.005000 4.999997
v -4.999998 -0.005000 4.999997
v -4.999996 -0.005000 -5.000000
v 5.000000 0.005000 -4.999995
v 4.999994 0.005000 5.000000
v -5.000000 0.005000 4.999996
v -4.999997 0.005000 -4.999998
vn -0.000000 -0.000119 1.000000
vn -1.000000 -0.000143 -0.000000
vn 0.000000 0.000215 -1.000000
usemtl 
s off
f 33//1 34//1 35//1
f 33//1 35//1 36//1
f 37//2 40//2 39//2
f 37//2 39//2 38//2
f 33//3 37//3 38//3
f 33//3 38//3 34//3
f 34//11 38//11 39//11
f 34//11 39//11 35//11
f 35//12 39//12 40//12
f 35//12 40//12 36//12
f 37//13 33//13 36//13
f 37//13 36//13 40//13
