# Blender v2.59 (sub 0) OBJ File: 'canLight.blend'
# www.blender.org
v 0.212132 1.000000 -0.197099
v 0.286416 1.000000 -0.074217
v 0.295086 1.000000 0.069110
v 0.236155 1.000000 0.200049
v 0.123124 1.000000 0.288603
v -0.018114 1.000000 0.314486
v -0.155201 1.000000 0.271768
v -0.256734 1.000000 0.170235
v -0.299453 1.000000 0.033147
v -0.273570 1.000000 -0.108090
v -0.185016 1.000000 -0.221122
v -0.054076 1.000000 -0.280053
v 0.089251 1.000000 -0.271383
v 0.212132 3.000000 -0.197098
v 0.286416 3.000000 -0.074217
v 0.295086 3.000000 0.069110
v 0.236155 3.000000 0.200050
v 0.123123 3.000000 0.288604
v -0.018114 3.000000 0.314486
v -0.155202 3.000000 0.271768
v -0.256735 3.000000 0.170234
v -0.299453 3.000000 0.033146
v -0.273570 3.000000 -0.108091
v -0.185015 3.000000 -0.221122
v -0.054076 3.000000 -0.280053
v 0.089252 3.000000 -0.271383
v 0.000000 1.000000 0.015033
v 0.000000 3.000000 0.015033
vn -0.000000 -1.000000 0.000000
vn 0.000000 1.000000 -0.000000
vn 0.855782 -0.000000 -0.517337
vn 0.998176 0.000000 -0.060378
vn 0.911900 0.000000 0.410414
vn 0.616718 0.000000 0.787184
vn 0.180254 0.000000 0.983620
vn -0.297504 0.000000 0.954721
vn -0.707107 0.000000 0.707106
vn -0.954721 0.000000 0.297502
vn -0.983620 -0.000000 -0.180256
vn -0.787183 -0.000000 -0.616720
vn -0.410411 -0.000000 -0.911901
vn 0.060380 -0.000000 -0.998175
vn 0.517339 -0.000000 -0.855781
usemtl 
s off
f 27//1 1//1 2//1
f 28//2 15//2 14//2
f 27//1 2//1 3//1
f 28//2 16//2 15//2
f 27//1 3//1 4//1
f 28//2 17//2 16//2
f 27//1 4//1 5//1
f 28//2 18//2 17//2
f 27//1 5//1 6//1
f 28//2 19//2 18//2
f 27//1 6//1 7//1
f 28//2 20//2 19//2
f 27//1 7//1 8//1
f 28//2 21//2 20//2
f 27//1 8//1 9//1
f 28//2 22//2 21//2
f 27//1 9//1 10//1
f 28//2 23//2 22//2
f 27//1 10//1 11//1
f 28//2 24//2 23//2
f 27//1 11//1 12//1
f 28//2 25//2 24//2
f 27//1 12//1 13//1
f 28//2 26//2 25//2
f 13//1 1//1 27//1
f 28//2 14//2 26//2
f 1//3 14//3 15//3
f 1//3 15//3 2//3
f 2//4 15//4 16//4
f 2//4 16//4 3//4
f 3//5 16//5 17//5
f 3//5 17//5 4//5
f 4//6 17//6 18//6
f 4//6 18//6 5//6
f 5//7 18//7 19//7
f 5//7 19//7 6//7
f 6//8 19//8 20//8
f 6//8 20//8 7//8
f 7//9 20//9 21//9
f 7//9 21//9 8//9
f 8//10 21//10 22//10
f 8//10 22//10 9//10
f 9//11 22//11 23//11
f 9//11 23//11 10//11
f 10//12 23//12 24//12
f 10//12 24//12 11//12
f 11//13 24//13 25//13
f 11//13 25//13 12//13
f 12//14 25//14 26//14
f 12//14 26//14 13//14
f 14//15 1//15 13//15
f 14//15 13//15 26//15
v 0.707107 -1.000000 -0.707107
v 0.954721 -1.000000 -0.297503
v 0.983620 -1.000000 0.180255
v 0.787184 -1.000000 0.616719
v 0.410413 -1.000000 0.911900
v -0.060378 -1.000000 0.998176
v -0.517338 -1.000000 0.855781
v -0.855781 -1.000000 0.517338
v -0.998176 -1.000000 0.060379
v -0.911900 -1.000000 -0.410413
v -0.616719 -1.000000 -0.787184
v -0.180254 -1.000000 -0.983620
v 0.297504 -1.000000 -0.954721
v 0.707107 1.000000 -0.707106
v 0.954721 1.000000 -0.297502
v 0.983620 1.000000 0.180256
v 0.787183 1.000000 0.616720
v 0.410411 1.000000 0.911901
v -0.060380 1.000000 0.998175
v -0.517340 1.000000 0.855780
v -0.855783 1.000000 0.517336
v -0.998176 1.000000 0.060376
v -0.911899 1.000000 -0.410415
v -0.616717 1.000000 -0.787185
v -0.180252 1.000000 -0.983620
v 0.297506 1.000000 -0.954720
v 0.000000 -1.000000 0.000000
v 0.000000 1.000000 0.000000
vn -0.707108 0.000000 0.707106
usemtl 
s off
f 55//1 29//1 30//1
f 56//2 43//2 42//2
f 55//1 30//1 31//1
f 56//2 44//2 43//2
f 55//1 31//1 32//1
f 56//2 45//2 44//2
f 55//1 32//1 33//1
f 56//2 46//2 45//2
f 55//1 33//1 34//1
f 56//2 47//2 46//2
f 55//1 34//1 35//1
f 56//2 48//2 47//2
f 55//1 35//1 36//1
f 56//2 49//2 48//2
f 55//1 36//1 37//1
f 56//2 50//2 49//2
f 55//1 37//1 38//1
f 56//2 51//2 50//2
f 55//1 38//1 39//1
f 56//2 52//2 51//2
f 55//1 39//1 40//1
f 56//2 53//2 52//2
f 55//1 40//1 41//1
f 56//2 54//2 53//2
f 41//1 29//1 55//1
f 56//2 42//2 54//2
f 29//3 42//3 43//3
f 29//3 43//3 30//3
f 30//4 43//4 44//4
f 30//4 44//4 31//4
f 31//5 44//5 45//5
f 31//5 45//5 32//5
f 32//6 45//6 46//6
f 32//6 46//6 33//6
f 33//7 46//7 47//7
f 33//7 47//7 34//7
f 34//8 47//8 48//8
f 34//8 48//8 35//8
f 35//16 48//16 49//16
f 35//16 49//16 36//16
f 36//10 49//10 50//10
f 36//10 50//10 37//10
f 37//11 50//11 51//11
f 37//11 51//11 38//11
f 38//12 51//12 52//12
f 38//12 52//12 39//12
f 39//13 52//13 53//13
f 39//13 53//13 40//13
f 40//14 53//14 54//14
f 40//14 54//14 41//14
f 42//15 29//15 41//15
f 42//15 41//15 54//15
